.
 
http://www.scenetime.com    -   SceneTime [ We been having it ] !!!


How come you press harder on a remote control when you know the battery is dead? so you better seed to get speed ;)

        Seed back for speed


...................................NFO:.................................................








































          
          
              
              
                    
                    
                    
                    

YellowBrickRoad.2010.DVDSCR.XviD-SiC

Poster:
[img]http://leetleech.org/images/34599014723062696298.jpg[/img]

IMDB Link:
http://www.imdb.com/title/tt1398428/

Description:
1940: the entire population of Friar, New Hampshire walked up 
a winding mountain trail, leaving everything behind. 2008: 
the first official expedition into the wilderness attempts to solve 
the mystery of the lost citizens of Friar. 

Mediainfo:
General
Complete name                    : YellowBrickRoad.2010.DVDSCR.XviD-SiC.avi
Format                           : AVI
Format/Info                      : Audio Video Interleave
Format profile                   : OpenDML
File size                        : 1.28 GiB
Duration                         : 1h 40mn
Overall bit rate                 : 1 821 Kbps
Writing application              : Lavf52.91.0

Video
ID                               : 0
Format                           : xvid
Codec ID                         : xvid
Duration                         : 1h 40mn
Bit rate                         : 381 Kbps
Width                            : 640 pixels
Height                           : 360 pixels
Display aspect ratio             : 16:9
Frame rate                       : 29.970 fps
Bits/(Pixel*Frame)               : 0.055
Stream size                      : 274 MiB (21%)

Audio
ID                               : 1
Format                           : MPEG Audio
Format version                   : Version 1
Format profile                   : Layer 3
Mode                             : Joint stereo
Mode extension                   : MS Stereo
Codec ID                         : 55
Codec ID/Hint                    : MP3
Duration                         : 1h 40mn
Bit rate mode                    : Constant
Bit rate                         : 256 Kbps
Channel(s)                       : 2 channels
Sampling rate                    : 44.1 KHz
Compression mode                 : Lossy
Stream size                      : 41.3 MiB (3%)
Alignment                        : Aligned on interleaves
Interleave, duration             : 31 ms (0.94 video frame)
Writing library                  : LAME

Screenshots:
[img]http://leetleech.org/images/18763691877434692449.png[/img]
[img]http://leetleech.org/images/18457517925399613373.png[/img]
[img]http://leetleech.org/images/87997410753809917267.png[/img]
[img]http://leetleech.org/images/36603372453871359251.png[/img]
[img]http://leetleech.org/images/92444974329085596300.png[/img]

Note: N/A

Encoder: Thefuzz

Enjoy!

Respects to CaptainHomey, Cyanide, CM8, Rx, Pirate666, THC, 
ELEKTRI4KA, Killerhz, XtremE, PA and everyone in the struggle...